<svg xmlns="http://www.w3.org/2000/svg" width="170.195" height="199.054" viewBox="0 0 170.195 199.054">
  <g id="svgg" transform="translate(-114.99 -96.967)">
    <path id="path0" d="M166.2,97.339c-4,.733-13.846,1.98-16.368,2.074-.853.032-1.35.385-1.1.785s-.1.751-.763.778-3.087.269-5.378.535-5.831.488-7.865.492-3.909.325-4.166.715a9.073,9.073,0,0,1-3.247,1.64c-2.321.779-1.423.958,5.456,1.092,4.528.088,8.655.42,9.171.739.573.354.646.107.186-.636-.571-.924-.218-1.072,1.477-.619a22.734,22.734,0,0,0,4.775.609c1.4.007,2.546.429,2.546.938s-1.042.926-2.315.926-2.315.417-2.315.926.878.926,1.951.926c1.329,0,1.786.431,1.433,1.351-.422,1.1.812,1.4,6.6,1.62,9.539.362,11.528,3.511,2.216,3.511-3.856,0-5.673.388-6.017,1.284s.038,1.145,1.267.824c2.333-.61,1.536,14.494-.806,15.275-1.512.5-1.4,9.029.14,10.568a2.724,2.724,0,0,1,.848,2.381c-.21.632.069,1.149.62,1.149s1,1.507,1,3.349c0,2.813-.277,3.276-1.729,2.9-1.955-.512-2.91,13.182-1.113,15.945a2.012,2.012,0,0,1-.11,2.556c-1.411,1.7-1,11.757.642,15.687q2.361,5.65.555,4.534c-1.371-.848-2.076,2.271-2.5,11.051-.22,4.583-.6,9.512-.843,10.954a4.746,4.746,0,0,0,.856,3.919,3.653,3.653,0,0,1,.808,3.171,4.1,4.1,0,0,0,.659,3.257c.795.958.829,1.384.109,1.384-.571,0-1.039.625-1.039,1.389s.463,1.389,1.028,1.389.169.729-.883,1.62c-2.441,2.07-3.577,29.861-1.219,29.861.75,0,1.053-.569.739-1.389-.975-2.541,1.288-1.432,2.364,1.158,2,4.823,1.35,5.75-4.058,5.773-3.114.012-5.321,1.306-4.178,2.449.253.253,3.546.519,7.318.591,5.878.113,6.875.369,6.982,1.793.089,1.189-.534,1.662-2.187,1.662-1.3,0-2.063.4-1.739.926s-.454.926-1.8.926c-1.3,0-2.369-.417-2.369-.926a.957.957,0,0,0-.981-.926c-.539,0-.679.488-.311,1.083.46.744.15.884-.988.447a3.139,3.139,0,0,0-2.827.334c-1.372,1.138-9,.164-8.248-1.054.276-.445-.322-.81-1.328-.81s-1.974.433-2.15.962-4.482,1.3-9.568,1.722-8.354.819-7.263.89c2.248.147,3.853,2.908,1.69,2.908-.748,0-1.359-.417-1.359-.926s-.625-.926-1.389-.926-1.389.417-1.389.926.614.926,1.365.926,2.011,1.25,2.8,2.777c1.4,2.717,1.388,2.778-.8,2.778a3.1,3.1,0,0,0-2.8,1.465c-.853,2.223-.716,2.413,1.29,1.776,1.209-.384,1.856-.165,1.866.632.01.9.252.851.911-.169s.9-1.065.912-.169c.009.8.657,1.016,1.866.632,1.043-.331,1.9-.156,1.968.4a18.3,18.3,0,0,0,.347,1.915,18.77,18.77,0,0,1,.347,1.852c.064.509,2.224.926,4.8.926,2.887,0,4.465-.356,4.112-.926-.315-.51-.131-.926.409-.926a.907.907,0,0,1,.98.8c0,1.321,7.736,2.006,8.547.757.539-.831.9-.8,1.5.116.574.889,4.739,1.324,15.509,1.62,8.1.223,16.63.618,18.959.879s4.475.231,4.771-.064,3.6-.644,7.34-.773c7.455-.257,13.894-1.766,15.84-3.712.687-.688,2.894-1.47,4.9-1.739a51.725,51.725,0,0,0,8.745-2.353,39.912,39.912,0,0,1,9.722-2.091c2.707-.132,5.4-.876,6.482-1.79,2.317-1.957,5.093-2.977,5.093-1.873,0,.459-.876,1.112-1.946,1.452-1.226.389-1.62.942-1.066,1.5s1.871.477,3.565-.208c1.478-.6,3.521-1.371,4.539-1.72,9.4-3.222,19.834-10.258,24.074-16.236,2.413-3.4,2.836-7.371.7-6.55-1.371.526-1.366.414.05-1.15A6.229,6.229,0,0,0,275,255.1c0-.936.258-1.444.573-1.129.6.6,3.131-1.516,3.131-2.612,0-.346-.625-.388-1.389-.1-1.479.567-2.05-3.07-.7-4.425a2.894,2.894,0,0,0,.775-1.311,13.485,13.485,0,0,1,.829-2.331,1.854,1.854,0,0,0-.543-2.564c-1.074-.707-1.016-1.062.344-2.1A2.753,2.753,0,0,0,279.257,236c-.879-2.772-1.408-11.447-.586-9.608a19.4,19.4,0,0,1,.986,5.555c.138,3.257.247,3.425.9,1.389.429-1.34.835-1.73.965-.926.123.764.522-.277.886-2.314l.664-3.7.131,3.527c.19,5.1,1.983,3.3,1.983-2,0-4.795-2.277-14.625-3.818-16.482a2.119,2.119,0,0,1-.285-2.279c.388-.628.3-.868-.215-.553s-1.416-.867-2.045-2.607a13.512,13.512,0,0,0-3.64-5.127c-1.373-1.08-2.41-2.238-2.3-2.574.587-1.864-12.715-13.111-15.506-13.111a3.932,3.932,0,0,1-2.645-1.271c-1.114-1.342-.477-4.284.928-4.284.454,0,.826-.625.826-1.389,0-2.54-6.426-.352-6.554,2.232-.044.874-.256,1.023-.523.366a1.3,1.3,0,0,0-1.685-.631,1.522,1.522,0,0,1-1.787-.418c-.3-.491.072-1.131.833-1.423a2.277,2.277,0,0,0,1.383-1.949,1.663,1.663,0,0,1,1.621-1.525c4.017-.265,6.712-1.544,6.712-3.187a2.672,2.672,0,0,1,1.173-1.984c4.726-2.986,10.368-21.373,9.723-31.689-.394-6.3-.327-6.686.663-3.782.742,2.178,1.278,2.782,1.643,1.852.9-2.29.773,2.963-.147,6.171-.459,1.6-.5,3.264-.088,3.7.687.725-1.495,10.537-3.233,14.54-.593,1.366-.391,1.646,1,1.378,1.2-.231,1.917-1.416,2.308-3.819a10.45,10.45,0,0,1,3.532-6.132c3.232-2.886,3.4-6.269.825-16.753-1.256-5.114-1.39-5.286-2.822-3.625-.631.733-1.06,1.17-.953.972a13,13,0,0,0-1.164-3.612c-.995-2.381-1.088-3.578-.346-4.471,1.092-1.317.421-3.153-1.153-3.153-.534,0-.735.615-.447,1.366s-1.229-.4-3.373-2.547a89.3,89.3,0,0,0-6.675-6.066c-2.12-1.645-2.229-1.854-.463-.885,2.711,1.489,4.808,1.579,5.259.228.176-.527-.586-1.027-1.692-1.111a3.82,3.82,0,0,1-2.642-1.172,1.673,1.673,0,0,0-1.472-.863c-3.067.578-5.833-.173-5.343-1.45.293-.764.107-1.389-.415-1.389a1.8,1.8,0,0,0-1.415,1.158c-.256.636-.5.314-.54-.716-.095-2.442-5.313-5.246-10.285-5.527-3.294-.186-3.765.018-3.386,1.466s.021,1.6-2.472,1.122c-4.675-.9-7.219-2.257-3.046-1.626,2.707.41,3.473.246,3.17-.678-.494-1.5-6.318-2.184-7.152-.835-.42.679-1.6.7-3.8.054-1.756-.511-8.193-.927-14.3-.924s-13.4-.224-16.2-.5-7.9-.74-11.343-1.024-6.25-.834-6.25-1.225c0-1.176-3.018-1.528-6.944-.809m59.705,8.755c.718.718.2.884-1.817.588-1.55-.228-2.994-.7-3.208-1.044-.643-1.041,3.945-.625,5.025.456m-107.39,2.239c0,.51.625.926,1.388.926s1.389-.416,1.389-.926-.625-.926-1.389-.926-1.388.417-1.388.926m7.87,0c.316.512,4.485.926,9.314.926,5.21,0,8.741-.374,8.741-.926s-3.721-.926-9.313-.926c-5.974,0-9.109.332-8.742.926m31.944.463a1.393,1.393,0,0,1-1.389,1.389c-2.409,0-1.628-1.825,1.158-2.7.127-.041.231.551.231,1.315m102.778,6.783c0,.421,1.042,1.743,2.315,2.94,2.652,2.491,2.994,1.9.819-1.422-1.462-2.231-3.134-3.041-3.134-1.518m-36.942,5.645c12.025,2.4,25.509,7.6,24.391,9.415-.228.368.426.45,1.452.182,1.436-.376,1.734-.142,1.292,1.012-.378.985-.084,1.5.857,1.5,1.728,0,3.03,1.823,1.893,2.65-.447.325-.824,3.091-.837,6.147-.025,6.019-3.557,15.749-5.321,14.659-.552-.341-.682-.145-.307.463,1.289,2.086-12.28,11.942-14.635,10.631-.555-.309-.468.02.194.731a4,4,0,0,0,2.315,1.293c1.579,0,1.9,3.667.432,4.888-3.587,2.977-46.572,4.348-48.886,1.56a3.587,3.587,0,0,0-2.66-1.283c-2.712.259-3.908-.064-3.384-.912.286-.461-.268-.633-1.23-.382-2.625.687-3.492-1.558-.893-2.313,1.572-.456.633-.76-3.379-1.1-6.763-.563-8.243-3.24-1.792-3.24,3.366,0,3.724-.213,3.378-2.013-.314-1.639.105-2.069,2.255-2.315,2.943-.337,2.8.845,1.854-15.117-.241-4.074-.124-7.824.26-8.333.949-1.257-1.285-15.87-2.683-17.555-1.805-2.175,35.081-2.64,45.434-.573m-79.725.473c0,.729.938,1.619,2.084,1.977a5.856,5.856,0,0,1,2.676,1.573c.327.508.876.035,1.22-1.051s1.015-1.974,1.49-1.974a.9.9,0,0,0,.864-.926c0-.509-1.875-.926-4.167-.926-3,0-4.167.372-4.167,1.327m6.482,26.914c0,1.509.518,2.315,1.488,2.315s1.295-.5.926-1.465a8.475,8.475,0,0,1-.562-2.315.894.894,0,0,0-.926-.85c-.509,0-.926,1.042-.926,2.315m119.444,9.314c0,1.344.4,2.122.926,1.8a3.084,3.084,0,0,0,.926-2.369c0-.989-.416-1.8-.926-1.8s-.926,1.066-.926,2.369m-14.814,3.649c-.538,1.414-1.187,2.363-1.441,2.109s-.023-1.62.515-3.035,1.186-2.363,1.44-2.109.023,1.621-.514,3.035m9.876,2.932a4.36,4.36,0,0,0-.617,2.474,6.31,6.31,0,0,1-1.538,3.555c-1.989,2.2-1.159,2.946,2.4,2.165,3.226-.709,4.484-6.959,1.4-6.959-.794,0-1.186-.417-.871-.926.647-1.048.162-1.242-.772-.309m-16.339,4.453a3.824,3.824,0,0,1-2.679,1.338c-1.263-.061-1.282-.158-.118-.6a5.021,5.021,0,0,0,2.169-1.849c.428-.727,1.008-1.093,1.289-.812s-.017,1.145-.661,1.921m11.092,6.5c0,1.054.483,1.4,1.437,1.036.824-.317,1.2-.161.871.363-.311.5-.169.916.316.916s1.122-.625,1.415-1.389.163-1.389-.288-1.389a8.452,8.452,0,0,1-2.286-.562c-.985-.378-1.465-.042-1.465,1.025m-30.092,30.86c11.192,3.724,16.049,5.829,16.569,7.183a2.13,2.13,0,0,0,1.81,1.309c1.612,0,6.11,5.753,6.7,8.575.975,4.636.561,18.464-.584,19.521-.9.828-.992.775-.418-.23.486-.852.387-1.081-.287-.665a1.61,1.61,0,0,0-.549,1.886c.787,2.049-3.482,5.953-5.653,5.17-2.534-.914-4.006-.259-8.43,3.754-3.8,3.443-5.934,4.257-20.274,7.724-3.564.861-7.939,1.974-9.722,2.472-3.4.952-12.089,1.76-22.248,2.071l-6.046.185.119-5.307c.117-5.252.093-5.3-2.289-4.786-1.684.364-2.029.255-1.15-.365.915-.644.967-1.064.191-1.543a2.065,2.065,0,0,0-2.215.3c-.847.7-1.15.5-1.15-.78,0-.954.223-1.682.5-1.617,1.891.447,4.662-1.45,3.74-2.56-1.158-1.4.277-2.828,1.856-1.852.539.333.477-.425-.149-1.8-.6-1.305-1.664-2.373-2.377-2.373-.743,0-1.013.455-.634,1.069.418.675.253.817-.446.385a2.272,2.272,0,0,1-.507-2.574c.372-1.171.243-1.669-.339-1.31-1.281.792-.183-3.387,1.123-4.269.694-.469.656-.685-.122-.695-.62-.007-.888-.639-.6-1.4a2.193,2.193,0,0,1,1.823-1.389c.709,0,1.207-.312,1.106-.694-.334-1.264,1.219-4.861,2.1-4.861,1.409,0,.981-2.535-.525-3.113-.764-.293-1.389-.129-1.389.364s-.638.9-1.418.9a2.2,2.2,0,0,0-1.912,1.287c-.568,1.48-5.009-2.376-5-4.338.009-1.45,4.372-3.468,6.079-2.813.726.278,1.321.045,1.321-.518a.97.97,0,0,1,.9-1.025c.493,0,.662.729.376,1.62-.336,1.049.146.8,1.368-.694,2.119-2.6,1.471-3.868-2.172-4.256a3.432,3.432,0,0,0-3.5,1.538c-.616.985-1.61,1.792-2.208,1.792a1.883,1.883,0,0,0-1.556,1.157c-.279.691-.5.505-.541-.463-.04-.891.336-1.62.836-1.62s1.169-1.042,1.489-2.315.952-2.315,1.406-2.315a.907.907,0,0,0,.826-.966c0-.532-.729-.845-1.62-.695-.944.159-1.621-.308-1.621-1.117,0-1.491,3.461-1.418,4.013.085.642,1.751,1.774.744,1.774-1.579,0-3.58.123-3.6,23.525-3.6,20.159,0,22.051.145,28.1,2.156m-71.774,46.632a2.7,2.7,0,0,1-.885,2.121c-.525.325-.847-.825-.774-2.764.123-3.283,1.629-2.7,1.659.643m3.6,2.83c-.775,1.449-1.241,1.7-1.534.818a1.917,1.917,0,0,1,.85-2.066c1.85-1.172,1.916-1.053.684,1.248m-2.4,3.166c.241,1.26-.035,2.16-.662,2.16-1.59,0-3.216-1.912-2.722-3.2.734-1.914,2.95-1.234,3.384,1.039m16.859,2.947c-.222.221-1.02-.109-1.774-.735a2.52,2.52,0,0,0-2.569-.459c-.926.525-.951.412-.113-.5a2.921,2.921,0,0,0,.552-2.682c-.294-.829.555-.275,1.887,1.23s2.239,2.92,2.017,3.142m-17.843,3.95c-1.932.7-2.768-.943-1.029-2.017a1.313,1.313,0,0,1,1.93.338c.406.656.038,1.341-.9,1.679m-36.309,1.745c0,.552,3.55.926,8.8.926s8.8-.374,8.8-.926-3.55-.926-8.8-.926-8.8.373-8.8.926m54.2,1.791c-.294.477.827,1.035,2.492,1.241,2.756.341,2.689.388-.754.523-2.81.11-3.781-.209-3.781-1.241a1.345,1.345,0,0,1,1.289-1.388c.709,0,1.048.389.754.865m-14.314,2.285c-.828,1-.8,1.41.118,1.779.658.264,0,.513-1.453.553l-2.649.073,2.186-1.821c2.589-2.156,3.293-2.385,1.8-.584m-40.816.553c0,.509,1.459.926,3.241.926s3.241-.417,3.241-.926-1.459-.926-3.241-.926-3.241.417-3.241.926m33.032,8.018c-.335.335-2.7.536-5.247.446-2.637-.094-4.637.242-4.637.778s2.385.943,5.5.943c3.2,0,5.781.453,6.171,1.084.454.735.158.887-.92.473-.873-.335-1.369-.254-1.1.181.646,1.045,7.042,2.059,8.256,1.309.541-.335.18-.89-.839-1.289-1.448-.567-1.26-.714.987-.766,3.97-.092,16.608,2.657,16.975,3.693.17.479,1.136.871,2.146.871,1.39,0,1.7.433,1.273,1.777-.391,1.233-.056,1.908,1.1,2.207.913.237.305.479-1.35.538-2.2.079-3.009-.295-3.009-1.395,0-1.292-.214-1.325-1.534-.231-1.672,1.385-8.649,1.765-8.65.471,0-.44-1.241-.617-2.757-.395s-2.942-.043-3.17-.589c-.262-.627-.757-.5-1.341.335-.739,1.062-1.2,1.1-2.295.193s-1.469-.89-1.852.06c-.376.932-.706.889-1.5-.193-.888-1.217-1.132-1.188-1.968.231-1.231,2.088-6.621,2.3-5.827.229.56-1.459-3.611-1.565-5.9-.15-.721.445-.923-.09-.634-1.68.327-1.807.036-2.334-1.293-2.334-2.454,0-3.111.991-1.785,2.693,1.029,1.319.971,1.333-.546.141-1.339-1.053-2.063-1.1-3.444-.241-1.476.921-1.92.768-2.842-.982a9.958,9.958,0,0,0-2.111-2.812c-.56-.407,1.273-.667,4.074-.58,8.31.259,13.779-.156,11.288-.858-1.176-.331-2.009-1.018-1.852-1.528s-1.8-1.111-4.343-1.338l-4.63-.413,5.093-.594c7.256-.846,15.231-1,14.513-.285m20.016,1.192c.4.375-.552.606-2.122.512a7.138,7.138,0,0,1-3.974-1.339c-1.242-1.3,4.672-.5,6.1.827m-47.724,4.391a7.6,7.6,0,0,1-3.24,0c-.892-.232-.162-.423,1.62-.423s2.512.191,1.62.423m43.75,4c0,.5,1.042.916,2.315.916s2.315-.326,2.315-.724-1.042-.81-2.315-.916-2.315.221-2.315.724m-55.341,1.1c.386,1.158,5.387,2.859,6.153,2.093.714-.714-2.974-3.139-4.824-3.171-.934-.016-1.531.469-1.329,1.078" fill-rule="evenodd"/>
  </g>
</svg>
